<svg width="12" height="11" viewBox="0 0 12 11" fill="none" xmlns="http://www.w3.org/2000/svg">
  <path d="M10.8308 2.94254C10.7764 2.72502 10.6655 2.52572 10.5094 2.36477C10.3533 2.20382 10.1574 2.08692 9.94166 2.02587C9.15333 1.83337 6 1.83337 6 1.83337C6 1.83337 2.84666 1.83337 2.05833 2.04421C1.84257 2.10525 1.64674 2.22215 1.49061 2.3831C1.33449 2.54405 1.22361 2.74335 1.16916 2.96087C1.02489 3.76092 0.954314 4.57252 0.958331 5.38546C0.953188 6.20452 1.02377 7.0223 1.16916 7.82837C1.22919 8.03914 1.34255 8.23086 1.49831 8.38501C1.65407 8.53916 1.84696 8.65054 2.05833 8.70837C2.84666 8.91921 6 8.91921 6 8.91921C6 8.91921 9.15333 8.91921 9.94166 8.70837C10.1574 8.64733 10.3533 8.53043 10.5094 8.36948C10.6655 8.20853 10.7764 8.00923 10.8308 7.79171C10.974 6.99769 11.0446 6.19228 11.0417 5.38546C11.0468 4.5664 10.9762 3.74861 10.8308 2.94254V2.94254Z" stroke="black" stroke-width="1.5" stroke-linecap="round" stroke-linejoin="round" />
  <path d="M4.96875 6.88422L7.60417 5.38547L4.96875 3.88672V6.88422Z" fill="black" />
</svg>